<?xml version="1.0" standalone="no"?>
<!DOCTYPE svg PUBLIC "-//W3C//DTD SVG 1.1//EN" "http://www.w3.org/Graphics/SVG/1.1/DTD/svg11.dtd" >
<svg xmlns="http://www.w3.org/2000/svg">
<metadata>
This is a custom SVG webfont generated by Font Squirrel.
Copyright   : URWCopyright 2006 by URW Design  Development
Foundry URL : wwwurwppde
</metadata>
<defs>
<font id="NeuzeitGroteskBold" horiz-adv-x="1024" >
<font-face units-per-em="2048" ascent="1638" descent="-410" />
<missing-glyph horiz-adv-x="614" />
<glyph unicode=" "  horiz-adv-x="614" />
<glyph unicode="&#x09;" horiz-adv-x="614" />
<glyph unicode="&#xa0;" horiz-adv-x="614" />
<glyph unicode="!" horiz-adv-x="587" d="M143 124.5q0 65.5 43 108.5t108.5 43t108.5 -44t43 -109q0 -63 -44 -106.5t-107 -43.5q-66 0 -109 43t-43 108.5zM166 426v940h256v-940h-256z" />
<glyph unicode="&#x22;" horiz-adv-x="843" d="M66 1366h305l-52 -549h-202zM473 1366h305l-51 -549h-203z" />
<glyph unicode="#" d="M61 465v137h218l28 180h-194v140h213l57 383h135l-53 -383h180l55 383h140l-56 -383h179v-140h-199l-25 -180h176v-137h-196l-60 -410h-141l60 410h-181l-59 -410h-139l59 410h-197zM418 600h180l29 184h-185z" />
<glyph unicode="$" d="M78 973q0 162 103.5 267.5t273.5 117.5v145h96v-145q360 -53 373 -359h-232q-4 119 -141 142v-348q145 -51 227 -101q78 -47 123 -127t45 -172q0 -102 -53 -194.5t-143 -143.5q-72 -39 -199 -55v-180h-96v180q-164 10 -270 117q-105 106 -105 258v6h233v-12q0 -58 34 -97 q38 -43 108 -57v358q-207 70 -292 161t-85 239zM311 987q0 -59 31 -94t113 -68v316q-143 -23 -144 -154zM551 215q70 10 109.5 53t39.5 111q0 57 -34.5 94t-114.5 64v-322z" />
<glyph unicode="%" horiz-adv-x="1390" d="M82 934v176q0 145 57 205q67 71 190 71h3q109 0 182 -61q72 -66 72 -205v-217q0 -125 -64.5 -189.5t-185.5 -64.5q-129 0 -195 66q-59 59 -59 219zM203 29l901 1362l82 -52l-901 -1364zM244 1110v-186q0 -70 12 -95q22 -36 77 -36h3q53 0 72.5 28.5t19.5 106.5v186 q0 70 -20.5 98.5t-69.5 28.5q-55 0 -74.5 -26.5t-19.5 -104.5zM803 264v176q0 145 57 205q66 72 193 72q111 0 182 -62q72 -63 72 -204v-218q0 -123 -64.5 -188t-185.5 -65q-127 0 -195 67q-59 57 -59 217zM965 440v-186q0 -70 12 -94q23 -37 80 -37q53 0 72.5 29.5 t19.5 105.5v186q0 70 -20.5 98.5t-69.5 28.5q-55 0 -74.5 -26.5t-19.5 -104.5z" />
<glyph unicode="&#x26;" horiz-adv-x="1306" d="M76 358q0 129 63.5 219.5t233.5 198.5q-66 94 -89.5 151.5t-23.5 127.5q0 127 96.5 209t245.5 82q145 0 239.5 -81t94.5 -208q0 -96 -52.5 -174t-172.5 -158l188 -252q119 106 201 203l174 -154q-101 -112 -230 -233l230 -289h-301l-105 133q-209 -168 -391 -168 q-176 0 -288.5 110.5t-112.5 282.5zM334 377q0 -74 50 -125t124 -51h2q106 0 207 116l-213 275q-96 -61 -133 -108.5t-37 -106.5zM506 1051q0 -62 72 -152q70 43 95 76t25 78q0 41 -25.5 67.5t-66.5 26.5q-43 0 -71.5 -27.5t-28.5 -68.5z" />
<glyph unicode="'" horiz-adv-x="446" d="M66 1366h315l-53 -549h-211z" />
<glyph unicode="(" horiz-adv-x="669" d="M76 473q0 317 141 633q78 176 209 324l166 -156q-283 -369 -283 -811q0 -418 283 -780l-178 -152q-338 451 -338 942z" />
<glyph unicode=")" horiz-adv-x="669" d="M78 -313q283 373 282 811q1 415 -282 782l178 150q338 -451 338 -943q0 -315 -141 -632q-78 -176 -209 -324z" />
<glyph unicode="*" horiz-adv-x="847" d="M113 1087l51 138l184 -56v197h146v-197l192 70l51 -137l-207 -76l138 -162l-113 -88l-133 164l-115 -164l-125 88l117 162z" />
<glyph unicode="+" d="M27 659v136h415v405h140v-405h417v-136h-417v-405h-140v405h-415z" />
<glyph unicode="," horiz-adv-x="534" d="M66 -229l118 508l240 -60l-182 -489z" />
<glyph unicode="-" horiz-adv-x="454" d="M0 385v229h455v-229h-455z" />
<glyph unicode="." horiz-adv-x="534" d="M117 124.5q0 65.5 43 108.5t108.5 43t108.5 -44t43 -109q0 -63 -44 -106.5t-108 -43.5q-66 0 -108.5 43t-42.5 108.5z" />
<glyph unicode="/" horiz-adv-x="804" d="M-109 -424l680 1790h181l-680 -1790h-181z" />
<glyph unicode="0" d="M84 475v436q0 248 92 349q114 126 327 126h3q190 0 309 -106q66 -59 94.5 -136t28.5 -200v-530q0 -225 -113 -332q-115 -109 -311 -109q-213 0 -328 115q-57 57 -79.5 142t-22.5 245zM348 446q0 -82 5 -111.5t24 -53.5q45 -66 137 -66q94 0 137 70q29 49 29 164v475 q0 119 -41 166q-45 51 -125 51q-98 0 -137 -68q-29 -49 -29 -162v-465z" />
<glyph unicode="1" d="M233 885v243l512 267v-1395h-264v1018z" />
<glyph unicode="2" d="M57 0l478 729q78 119 101 170t23 98q0 66 -46 109t-115 43q-117 0 -154 -96q-18 -47 -20 -131h-242v7q0 212 114 333q115 124 318 124q180 0 295 -101t115 -261q0 -94 -39 -188.5t-129 -229.5l-256 -375h387v-231h-830z" />
<glyph unicode="3" d="M51 371l236 8q12 -80 62 -125t126 -45q88 0 148.5 60.5t60.5 148.5q0 92 -58.5 150.5t-152.5 58.5q-72 0 -125 -35l-147 125l311 416h-393v225h831l-379 -510q168 -14 266.5 -126t98.5 -286q0 -201 -128 -332t-325 -131q-115 0 -210 47.5t-152 133.5q-53 80 -70 217z" />
<glyph unicode="4" d="M72 281v219l479 870h274v-864h125v-225h-125v-281h-252v281h-501zM287 506h286v508z" />
<glyph unicode="5" d="M72 285l229 86q55 -150 191 -150q84 0 142 60.5t58 148.5t-59.5 149.5t-143.5 61.5q-102 0 -174 -92h-172v809h697v-238h-457v-293q88 37 170 37q168 0 281.5 -123t113.5 -305q0 -203 -127 -333t-321 -130q-188 0 -316 123q-63 66 -112 189z" />
<glyph unicode="6" d="M68 412q0 176 149 409l340 537h299l-350 -539q39 12 72 12q158 0 268 -117.5t110 -287.5q0 -188 -133 -320.5t-321 -132.5q-186 0 -310 125t-124 314zM315 416q0 -84 55.5 -140.5t139.5 -56.5t141.5 57.5t57.5 139.5q0 84 -55.5 141t-137.5 57t-141.5 -58t-59.5 -140z " />
<glyph unicode="7" d="M141 0l443 1120h-441v238h807l-536 -1358h-273z" />
<glyph unicode="8" d="M70 381q0 250 202 334q-161 80 -161 280q0 172 114.5 281.5t294.5 109.5q176 0 289 -106t113 -274q0 -111 -58 -199q-38 -57 -106 -92q196 -86 196 -318q0 -188 -124.5 -306t-321.5 -118q-195 0 -316.5 113t-121.5 295zM322 401q0 -82 54 -136t136 -54q80 0 134 54 t54 136q0 78 -54 133.5t-132 55.5q-84 0 -138 -53.5t-54 -135.5zM348 997.5q0 -71.5 49 -122t119 -50.5t122 51.5t52 116.5q0 68 -51 118t-121 50q-74 0 -122 -46t-48 -117.5z" />
<glyph unicode="9" d="M68 938q0 190 130 319t322 129q188 0 313 -125.5t125 -316.5q0 -178 -147 -409l-336 -535h-295l344 537q-47 -8 -61 -9q-66 0 -138.5 27t-119.5 68q-137 121 -137 315zM319 948q0 -82 56.5 -139t136.5 -57q84 0 140.5 55t56.5 139t-54.5 140.5t-136.5 56.5 q-84 0 -141.5 -56.5t-57.5 -138.5z" />
<glyph unicode=":" horiz-adv-x="534" d="M117 798.5q0 65.5 42.5 109.5t108.5 44q63 0 107.5 -45t44.5 -110q0 -63 -43 -105.5t-108.5 -42.5t-108.5 42t-43 107.5zM117 124.5q0 65.5 43 108.5t108.5 43t108.5 -44t43 -109q0 -63 -44 -106.5t-108 -43.5q-66 0 -108.5 43t-42.5 108.5z" />
<glyph unicode=";" horiz-adv-x="534" d="M66 -229l118 508l240 -60l-182 -489zM141 768q0 66 43 109t108.5 43t108.5 -44.5t43 -109.5q0 -61 -44 -105.5t-107 -44.5q-66 0 -109 43t-43 109z" />
<glyph unicode="&#x3c;" d="M68 571v238l886 459v-283l-587 -297l587 -297v-278z" />
<glyph unicode="=" d="M25 510v131h972v-131h-972zM25 813v131h972v-131h-972z" />
<glyph unicode="&#x3e;" d="M70 113v280l587 297l-587 297v281l886 -459v-238z" />
<glyph unicode="?" horiz-adv-x="915" d="M51 997q4 184 106.5 288t282.5 104q176 0 287 -102.5t111 -266.5q0 -100 -42 -175t-141 -145q-76 -57 -98 -92q-19 -30 -19 -75q0 -8 1 -17q2 -37 2 -72h-262q-2 33 -3 74q0 121 33 180.5t154 153.5q63 49 86.5 85t23.5 81q0 59 -38.5 97t-100.5 38q-139 0 -139 -156 h-244zM260 124.5q0 65.5 43 108.5t108.5 43t108.5 -44t43 -109q0 -63 -44 -106.5t-107 -43.5q-66 0 -109 43t-43 108.5z" />
<glyph unicode="@" horiz-adv-x="1579" d="M127 678q0 168 83 322.5t226 254.5q178 121 402 121q254 0 436 -168t182 -401q0 -121 -51 -230.5t-143 -187.5q-139 -117 -287 -117q-127 0 -137 109q-78 -61 -126 -84t-108 -23q-100 0 -160.5 69t-60.5 183q0 195 121 369q129 197 327 197q57 0 95.5 -18.5t85.5 -69.5 l20 53h176l-213 -568q-24 -65 -24 -96q0 -41 51 -41q55 0 119 43q98 63 155.5 172t57.5 230q0 197 -155 339t-370 142q-248 0 -424 -178t-176 -428q0 -242 171 -414t411 -172q229 0 395 143q53 46 133 152h101q-51 -106 -106.5 -170t-139.5 -117q-168 -106 -389 -106 q-231 0 -412 145q-127 102 -196.5 244.5t-69.5 300.5zM547 451q0 -92 84 -93q55 0 117.5 66t101.5 162l102 262q8 23 9 51q0 106 -87 107q-59 0 -118 -64q-84 -90 -146.5 -236.5t-62.5 -254.5z" />
<glyph unicode="A" horiz-adv-x="1294" d="M4 0l471 1366h350l467 -1366h-307l-78 236h-524l-82 -236h-297zM455 465h379l-189 565z" />
<glyph unicode="B" horiz-adv-x="1171" d="M143 0v1366h441q254 0 360 -88q119 -98 119 -279q0 -240 -229 -315q106 -25 161 -74q98 -86 99 -245q0 -203 -142 -299q-100 -66 -305 -66h-504zM424 207h137q133 0 191.5 42t58.5 140q0 111 -78 156q-57 33 -188 33h-121v-371zM424 786h113q127 0 185 45.5t58 141.5 t-59 138t-199 42h-98v-367z" />
<glyph unicode="C" horiz-adv-x="1300" d="M76 680q0 311 190.5 512t487.5 201q158 0 276.5 -50.5t239.5 -166.5l-183 -185q-156 141 -321 142q-180 0 -293 -124t-113 -323t118 -326t304 -127q184 1 305 140l170 -193q-119 -111 -237.5 -159t-269.5 -48q-319 0 -506 224q-168 201 -168 483z" />
<glyph unicode="D" horiz-adv-x="1312" d="M143 0v1366h387q319 0 492 -152q215 -190 215 -516q0 -166 -56.5 -306t-160.5 -234q-174 -158 -473 -158h-404zM424 231h53q211 0 322 95q153 128 153 361q0 208 -115.5 330t-310.5 122h-102v-908z" />
<glyph unicode="E" horiz-adv-x="948" d="M96 0v1366h760v-229h-479v-336h479v-230h-479v-342h479v-229h-760z" />
<glyph unicode="F" horiz-adv-x="956" d="M143 0v1366h760v-229h-479v-336h479v-230h-479v-571h-281z" />
<glyph unicode="G" horiz-adv-x="1540" d="M76 680q0 305 200.5 509t499.5 204q166 0 309.5 -68t243.5 -195l-211 -165q-143 170 -336 170q-180 0 -301 -130.5t-121 -324.5q0 -190 124 -321.5t304 -131.5q88 0 170 37t136 101q55 66 84 172h-381v229h684v-74q0 -307 -199 -508q-211 -211 -504 -211 q-299 0 -500.5 203t-201.5 504z" />
<glyph unicode="H" horiz-adv-x="1366" d="M143 0v1366h281v-578h518v578h281v-1366h-281v559h-518v-559h-281z" />
<glyph unicode="I" horiz-adv-x="565" d="M143 0v1366h281v-1366h-281z" />
<glyph unicode="J" horiz-adv-x="786" d="M63 -20v247q18 -2 39 -2q100 0 154 21q76 31 102.5 94t26.5 213v584h-322v229h603v-881q0 -188 -57.5 -295.5t-188.5 -162.5q-109 -47 -357 -47z" />
<glyph unicode="K" horiz-adv-x="1153" d="M143 0v1366h281v-594l387 594h326l-443 -657l443 -709h-330l-383 608v-608h-281z" />
<glyph unicode="L" horiz-adv-x="923" d="M143 0v1366h281v-1135h457v-231h-738z" />
<glyph unicode="M" horiz-adv-x="1736" d="M143 0v1366h318l407 -829l410 829h317v-1366h-280v852l-447 -893l-444 893v-852h-281z" />
<glyph unicode="N" horiz-adv-x="1413" d="M143 0v1366h277l571 -852v852h281v-1366h-275l-573 864v-864h-281z" />
<glyph unicode="O" horiz-adv-x="1564" d="M76 676q0 305 206 511t511 206q328 0 536 -250q158 -188 158 -467q0 -293 -204 -498t-495 -205q-299 0 -505.5 204t-206.5 499zM362 680q0 -190 121 -319.5t299 -129.5q176 0 298 128t122 315q0 201 -117.5 330t-300 129t-302.5 -128t-120 -325z" />
<glyph unicode="P" horiz-adv-x="1128" d="M143 0v1366h437q242 0 373.5 -113.5t131.5 -322.5q0 -213 -131 -337t-356 -124h-174v-469h-281zM424 700h121q123 0 189.5 56.5t66.5 159t-66.5 161t-183.5 58.5h-127v-435z" />
<glyph unicode="Q" horiz-adv-x="1566" d="M78 676q0 305 204.5 511t508.5 206q297 0 497.5 -201t200.5 -498q0 -266 -158 -465l129 -139l-198 -168l-123 148q-166 -96 -361 -97q-158 0 -306 73t-249 198q-145 184 -145 432zM362 684q0 -190 119 -320.5t293 -130.5q98 0 168 46l-92 108l197 168l98 -113 q59 115 59 248q0 186 -121.5 314.5t-298.5 128.5q-180 0 -301 -128t-121 -321z" />
<glyph unicode="R" horiz-adv-x="1196" d="M143 0v1366h422q254 0 387 -109.5t133 -320.5q0 -330 -323 -412l377 -524h-340l-375 543v-543h-281zM424 707h127q121 0 185.5 55t64.5 160q0 100 -59.5 156.5t-166.5 56.5h-151v-428z" />
<glyph unicode="S" horiz-adv-x="1067" d="M61 399h273v-18q0 -68 54 -114t132 -46t129 42t51 106q0 66 -55 108q-41 29 -166 74q-225 80 -315 175t-90 253q0 186 124 300t326 114q201 0 323 -111t138 -307h-283q-14 170 -178 170q-76 0 -122 -40t-46 -104q0 -82 84 -131q37 -20 160 -65q207 -76 285 -152 q109 -104 108 -264q0 -186 -130 -301t-341 -115q-213 0 -338 114.5t-123 311.5z" />
<glyph unicode="T" horiz-adv-x="944" d="M6 1137v229h930v-229h-324v-1137h-280v1137h-326z" />
<glyph unicode="U" horiz-adv-x="1308" d="M121 575v791h280v-801q0 -178 62 -250q31 -37 84 -60.5t106 -23.5q131 0 199 95q53 72 53 241v799h283v-791q0 -295 -135 -442q-143 -160 -396 -160q-260 0 -413 170q-66 74 -94.5 174.5t-28.5 257.5z" />
<glyph unicode="V" horiz-adv-x="1150" d="M4 1366h289l276 -915l289 915h289l-430 -1366h-299z" />
<glyph unicode="W" horiz-adv-x="1755" d="M4 1366h297l219 -862l221 862h279l213 -877l227 877h293l-381 -1366h-282l-216 895l-215 -895h-282z" />
<glyph unicode="X" horiz-adv-x="1189" d="M8 0l430 721l-383 645h324l219 -391l225 391h320l-385 -645l424 -721h-320l-264 475l-266 -475h-324z" />
<glyph unicode="Y" horiz-adv-x="1140" d="M-23 1366h334l264 -473l261 473h327l-448 -764v-602h-281v602z" />
<glyph unicode="Z" horiz-adv-x="1128" d="M27 0l639 1137h-568v229h1006l-637 -1137h575v-229h-1015z" />
<glyph unicode="[" horiz-adv-x="669" d="M135 -424v1790h438v-154h-219v-1482h219v-154h-438z" />
<glyph unicode="\" horiz-adv-x="804" d="M53 1366h180l680 -1790h-182z" />
<glyph unicode="]" horiz-adv-x="669" d="M96 -270h219v1482h-219v154h439v-1790h-439v154z" />
<glyph unicode="^" d="M37 725l317 647h316l317 -647h-252l-223 457l-223 -457h-252z" />
<glyph unicode="_" d="M0 -121h1024v-170h-1024v170z" />
<glyph unicode="`" d="M201 1376h262l170 -284h-160z" />
<glyph unicode="a" horiz-adv-x="1243" d="M70 463q0 225 135 371.5t342 146.5q182 0 309 -154v121h260v-948h-260v131q-131 -164 -329.5 -164t-327.5 139.5t-129 356.5zM348 467q0 -125 72 -208t178 -83q109 0 185.5 88t76.5 211q0 125 -72.5 206t-187.5 81q-113 0 -182.5 -82t-69.5 -213z" />
<glyph unicode="b" horiz-adv-x="1241" d="M129 0v1366h260v-532q127 147 307 147q209 0 343.5 -144.5t134.5 -367.5t-129.5 -362.5t-335.5 -139.5q-106 0 -181.5 36t-138.5 120v-123h-260zM385 467q0 -127 70.5 -208t183.5 -81q115 0 186.5 81t71.5 208q0 123 -73.5 209t-180 86t-182.5 -87t-76 -208z" />
<glyph unicode="c" horiz-adv-x="958" d="M68 469q0 225 141 368.5t362 143.5q203 0 379 -158l-174 -157q-88 84 -196.5 84t-178 -77t-69.5 -196q0 -121 72.5 -199.5t185.5 -78.5q92 0 186 80l158 -170q-156 -141 -365 -142q-217 0 -359 142.5t-142 359.5z" />
<glyph unicode="d" horiz-adv-x="1243" d="M70 465q0 256 163 397q137 119 310 119q182 0 313 -137v522h260v-1366h-260v125q-61 -84 -135 -121t-182 -37q-211 0 -340 137.5t-129 360.5zM346 465q0 -125 74 -207t182 -82q106 0 180 84t74 205q0 129 -71.5 213t-180.5 84q-113 0 -185.5 -85t-72.5 -212z" />
<glyph unicode="e" horiz-adv-x="1138" d="M68 475q0 223 140 364.5t359 141.5q225 0 369.5 -145.5t144.5 -372.5q0 -33 -2 -51h-741q16 -98 83.5 -155.5t164.5 -57.5q72 0 130 32.5t89 90.5l239 -66q-72 -139 -191.5 -214t-268.5 -75q-225 0 -370.5 143.5t-145.5 364.5zM338 561h475q-16 94 -80.5 147.5 t-161.5 53.5q-92 0 -153.5 -53.5t-79.5 -147.5z" />
<glyph unicode="f" horiz-adv-x="585" d="M43 729v219h104v53q0 193 93 280q90 85 283 85h9v-240q-70 -8 -97 -36.5t-27 -88.5v-53h124v-219h-124v-729h-261v729h-104z" />
<glyph unicode="g" horiz-adv-x="1206" d="M39 467q0 231 131 372.5t344 141.5q190 0 307 -150v117h256v-878q0 -145 -29.5 -237.5t-97.5 -158.5q-143 -143 -393 -143q-276 0 -465 188l162 164q119 -131 293 -131q131 0 202.5 74t71.5 207v96q-129 -162 -334 -162q-195 0 -321.5 141.5t-126.5 358.5zM315 479 q0 -121 73 -200.5t183 -79.5q127 0 201 94q45 57 45 162q0 152 -78 227q-74 68 -170 68q-111 0 -182.5 -76t-71.5 -195z" />
<glyph unicode="h" horiz-adv-x="1083" d="M129 0v1366h260v-520q113 135 260 135q135 0 228 -88q84 -78 84 -268v-625h-261v588q0 80 -37.5 127t-103 47t-117.5 -47q-53 -51 -53 -150v-565h-260z" />
<glyph unicode="i" horiz-adv-x="518" d="M115 1220.5q0 63.5 41 103.5t104.5 40t103 -41t39.5 -106q0 -59 -42 -100.5t-103 -41.5t-102 41t-41 104.5zM129 0v948h260v-948h-260z" />
<glyph unicode="j" horiz-adv-x="518" d="M-49 -197h39q139 0 139 166v979h260v-979q0 -207 -90 -306t-279 -99q-41 0 -69 2v237zM115 1220.5q0 63.5 41 103.5t104.5 40t103 -41t39.5 -106q0 -59 -42 -100.5t-101 -41.5q-63 0 -104 41t-41 104.5z" />
<glyph unicode="k" horiz-adv-x="968" d="M129 0v1366h260v-782l264 364h301l-321 -454l321 -494h-301l-264 393v-393h-260z" />
<glyph unicode="l" horiz-adv-x="518" d="M129 0v1366h260v-1366h-260z" />
<glyph unicode="m" horiz-adv-x="1622" d="M129 0v948h260v-119q86 152 260 152q188 0 258 -158q92 158 287 158q147 0 229 -88q43 -47 59.5 -105.5t16.5 -166.5v-621h-260v571q0 84 -25 127q-37 63 -120 64q-72 0 -112 -51.5t-40 -139.5v-571h-260v563q0 199 -143 199q-150 0 -150 -199v-563h-260z" />
<glyph unicode="n" horiz-adv-x="1087" d="M129 0v948h260v-117q51 82 109.5 116t148.5 34q141 0 234 -88q47 -47 65.5 -111.5t18.5 -181.5v-600h-260v588q0 74 -23 110q-43 63 -125 64q-74 0 -121 -52.5t-47 -134.5v-575h-260z" />
<glyph unicode="o" horiz-adv-x="1163" d="M68 473q0 225 144.5 366.5t373.5 141.5q223 0 368.5 -146.5t145.5 -369.5q0 -209 -150.5 -353.5t-369.5 -144.5q-223 0 -367.5 142.5t-144.5 363.5zM330 475q0 -123 70.5 -199.5t183.5 -76.5q109 0 181.5 77.5t72.5 192.5q0 125 -68.5 202t-183.5 77q-117 0 -186.5 -75 t-69.5 -198z" />
<glyph unicode="p" horiz-adv-x="1247" d="M129 -424v1372h260v-117q111 150 311 150q143 0 265 -78q215 -145 215 -432q0 -227 -130 -365.5t-343 -138.5q-201 0 -318 135v-526h-260zM389 463q0 -129 69.5 -208t182.5 -79q115 0 187.5 81t72.5 208q0 133 -69.5 215t-182.5 82q-115 0 -187.5 -84t-72.5 -215z" />
<glyph unicode="q" horiz-adv-x="1243" d="M68 467q0 227 135 370.5t348 143.5q190 0 303 -141v108h260v-1372h-260v526q-121 -135 -322 -135q-207 0 -335.5 138.5t-128.5 361.5zM346 469q0 -127 71.5 -210t180.5 -83t183.5 84t74.5 207q0 129 -71.5 212t-184.5 83t-183.5 -82t-70.5 -211z" />
<glyph unicode="r" horiz-adv-x="681" d="M129 0v948h260v-139q35 90 84 127q63 45 154 45q16 0 30 -2v-266q-41 4 -55 4q-115 0 -174 -86q-39 -55 -39 -174v-457h-260z" />
<glyph unicode="s" horiz-adv-x="858" d="M53 279h250q18 -119 125 -119q45 0 74.5 25.5t29.5 64.5q0 43 -35.5 68.5t-140.5 58.5q-156 45 -226.5 117.5t-70.5 185.5q0 135 100.5 218t266.5 83q162 0 256 -81t98 -226h-245v16q0 41 -35 69.5t-86 28.5q-47 0 -76 -24.5t-29 -63.5q0 -66 111 -98q207 -63 270 -110 q105 -78 105 -219q1 -139 -101 -222q-102 -84 -268 -84q-168 0 -266.5 82t-106.5 230z" />
<glyph unicode="t" horiz-adv-x="579" d="M33 733v219h108v254h260v-254h119v-219h-119v-454q0 -33 16.5 -47.5t57.5 -14.5h45v-217h-207q-92 0 -132 42t-40 138v553h-108z" />
<glyph unicode="u" horiz-adv-x="1052" d="M111 348v600h260v-583q0 -78 44 -128.5t113 -50.5q72 0 113 43t41 119v600h260v-600q0 -104 -24.5 -168.5t-81.5 -113.5q-115 -98 -308 -99q-203 0 -317 105q-100 92 -100 276z" />
<glyph unicode="v" horiz-adv-x="948" d="M-4 948h270l209 -565l211 565h266l-346 -948h-268z" />
<glyph unicode="w" horiz-adv-x="1490" d="M-4 948h264l191 -577l165 577h250l170 -577l193 577h264l-309 -948h-271l-165 582l-170 -582h-277z" />
<glyph unicode="x" horiz-adv-x="983" d="M-2 948h328l174 -252l168 252h317l-338 -477l332 -471h-315l-164 258l-174 -258h-308l330 471z" />
<glyph unicode="y" horiz-adv-x="960" d="M-4 948h276l193 -563l221 563h277l-535 -1380h-278l178 455z" />
<glyph unicode="z" horiz-adv-x="862" d="M31 0l399 729h-362v219h768l-396 -729h367v-219h-776z" />
<glyph unicode="{" d="M211 393v223q61 14 88 55.5t27 119.5v311q0 166 88 233q47 35 103 43t239 8q25 0 49 -2v-258h-15q-112 0 -148 -30q-38 -31 -38 -135v-218q0 -98 -25.5 -151t-91.5 -94q66 -39 91.5 -93.5t25.5 -152.5v-223q0 -109 37 -140.5t164 -31.5v-244q-76 -2 -121 -2 q-145 0 -206.5 18.5t-102.5 75.5q-49 68 -49 205v297q0 86 -26 129t-89 57z" />
<glyph unicode="|" d="M371 -342v1708h284v-1708h-284z" />
<glyph unicode="}" d="M221 -129q125 0 162 31t37 135v219q0 98 24.5 150.5t92.5 93.5q-66 39 -91.5 94t-25.5 154v223q0 109 -36 139.5t-163 30.5v243q52 2 98 2q209 0 273 -38q106 -70 106 -261v-294q0 -88 27 -130t90 -57v-225q-61 -16 -89 -56t-28 -118v-311q0 -147 -67 -215 q-43 -41 -103.5 -55.5t-197.5 -14.5q-63 0 -109 2v258z" />
<glyph unicode="~" horiz-adv-x="1366" d="M190 1255q113 272 302 273q72 0 231 -72q121 -55 162 -55q82 0 155 131l140 -115q-70 -164 -160 -223q-68 -45 -160 -45q-37 0 -74.5 12.5t-152.5 63.5q-106 47 -154 47q-43 0 -76.5 -29.5t-72.5 -101.5z" />
<glyph unicode="&#xa1;" horiz-adv-x="587" d="M143 827q0 63 44.5 106.5t107.5 43.5q66 0 108.5 -44t42.5 -108q0 -66 -44 -108.5t-109 -42.5q-63 0 -106.5 44t-43.5 109zM166 -416v940h256v-940h-256z" />
<glyph unicode="&#xa2;" d="M100 655q0 143 55.5 256t155.5 179q88 55 228 73v150h96v-150q174 -14 317 -151l-168 -152q-63 66 -149 80v-557q78 6 149 68l154 -158q-121 -115 -303 -133v-199h-96v199q-141 23 -236 84q-203 137 -203 411zM348 664q1 -226 191 -281v557q-190 -55 -191 -276z" />
<glyph unicode="&#xa3;" d="M63 0q2 137 80 231.5t191 96.5q47 76 56 96t9 49q0 90 -84 162h-235v125h135q-51 63 -69.5 113.5t-18.5 119.5q0 168 116.5 277.5t297.5 109.5q102 0 194 -43t152 -116q57 -72 63 -217h-235q-2 76 -35 112q-49 63 -129 64q-68 0 -116 -48.5t-48 -117.5q0 -61 26.5 -109.5 t110.5 -144.5h279v-125h-213q47 -84 47 -137q0 -80 -98 -201l14 -4l47 -19l39 -18l20 -8q102 -53 158 -53q35 0 59.5 12t59.5 51l27 -174q-90 -102 -209 -102q-51 0 -98.5 17t-157.5 81q-78 43 -125 43t-76 -33t-31 -90h-203z" />
<glyph unicode="&#xa4;" horiz-adv-x="1452" d="M96 1178l148 147l209 -209q90 49 145 65.5t129 16.5q72 0 124 -15.5t144 -64.5l209 205l146 -145l-203 -203q88 -143 88 -281q0 -121 -82 -268l203 -203l-146 -147l-200 203q-135 -88 -272 -89h-2q-137 0 -292 89l-200 -201l-146 145l201 203q-82 131 -82 272 q0 121 88 275zM465 698q0 -109 76.5 -185.5t185.5 -76.5t185.5 77t76.5 185q0 106 -77 184.5t-183 78.5q-111 0 -187.5 -76t-76.5 -187z" />
<glyph unicode="&#xa5;" d="M18 1358h279l221 -518l217 518h269l-213 -451h172v-135h-236l-80 -174v-14h275v-135h-275v-449h-264v449h-283v135h283v14l-82 174h-242v135h177z" />
<glyph unicode="&#xa6;" d="M371 313h284v-655h-284v655zM371 651v715h284v-715h-284z" />
<glyph unicode="&#xa7;" d="M86 494q0 125 61.5 209.5t174.5 117.5q-174 80 -175 262q0 137 101.5 224.5t259.5 87.5q109 0 201 -42t137 -112q43 -69 49 -182h-225q-6 70 -47 109.5t-107 39.5q-61 0 -103 -37.5t-42 -93.5q0 -57 49 -100q47 -37 182 -88q182 -70 259 -154t77 -217q0 -223 -219 -325 q164 -96 164 -263q0 -150 -107.5 -246t-275.5 -96q-227 0 -334 160q-53 80 -60 207h228q2 -84 49 -133t123 -49q66 0 109.5 43t43.5 108q0 72 -63 117q-43 31 -172 72q-180 59 -259 148t-79 233zM305 500q0 -82 59.5 -138.5t145.5 -56.5q88 0 146.5 56.5t58.5 140.5 q0 78 -60.5 136t-142.5 58q-84 0 -145.5 -58t-61.5 -138z" />
<glyph unicode="&#xa8;" d="M156 1241q0 57 41 97t98 40q59 0 97 -40t38 -101q0 -57 -38 -95t-97 -38t-99 40t-40 97zM592 1241q0 57 41 97t98 40q59 0 97 -40t38 -101q0 -59 -37.5 -96t-97 -37t-99.5 40t-40 97z" />
<glyph unicode="&#xa9;" horiz-adv-x="1581" d="M82 682q0 299 208 505t511 206q287 0 491.5 -210t204.5 -501q0 -293 -207 -501t-499.5 -208t-500.5 208t-208 501zM215 682q0 -242 169 -414t406.5 -172t405.5 171t168 415q0 242 -167 415t-398 173q-246 0 -415 -170t-169 -418zM403 688q0 182 111 298t285 116 q143 0 242.5 -82t109.5 -209h-131q-16 68 -74.5 106.5t-144.5 38.5q-104 0 -166 -73.5t-62 -196.5q0 -121 61.5 -193.5t164.5 -72.5q96 0 156.5 49t72.5 137h131q-12 -152 -111.5 -242t-254.5 -90q-174 0 -282 114t-108 300z" />
<glyph unicode="&#xaa;" horiz-adv-x="806" d="M51 825q0 137 85 224.5t218 87.5q111 0 185 -76v57h178v-571h-178v61q-74 -80 -197 -80q-127 0 -209 83t-82 214zM240 827q0 -72 42 -116.5t105 -44.5q66 0 110 49t44 119q0 72 -42 115.5t-112 43.5q-66 0 -106.5 -45t-40.5 -121z" />
<glyph unicode="&#xab;" horiz-adv-x="866" d="M76 487l194 347h170l-196 -347l196 -333h-170zM414 487l194 347h170l-196 -347l196 -333h-170z" />
<glyph unicode="&#xac;" d="M68 342v248h886v-590h-274v342h-612z" />
<glyph unicode="&#xad;" horiz-adv-x="454" d="M0 385v229h455v-229h-455z" />
<glyph unicode="&#xae;" horiz-adv-x="1581" d="M82 682q0 299 208 505t511 206q287 0 491.5 -210t204.5 -501q0 -293 -207 -501t-499.5 -208t-500.5 208t-208 501zM215 682q0 -242 169 -414t406.5 -172t405.5 171t168 415q0 242 -167 415t-398 173q-246 0 -415 -170t-169 -418zM489 291v792h334q119 0 185 -36 q104 -59 104 -185q0 -137 -135 -194q72 -29 96.5 -80t26.5 -176q6 -88 20 -121h-162q-14 29 -20 155q-8 109 -51 140q-36 30 -112 30h-5h-113v-325h-168zM657 717h127q160 0 160 133q0 129 -147 129h-140v-262z" />
<glyph unicode="&#xaf;" d="M326 1176v114h372v-114h-372z" />
<glyph unicode="&#xb0;" d="M197 1057q0 133 92 224t225 91t223 -92t90 -227q0 -129 -91 -220.5t-222 -91.5q-133 0 -225 91.5t-92 224.5zM311 1057q0 -86 58.5 -145.5t142.5 -59.5q82 0 141.5 59.5t59.5 141.5q0 88 -58.5 148.5t-144.5 60.5q-82 0 -140.5 -60.5t-58.5 -144.5z" />
<glyph unicode="&#xb1;" d="M25 59v136h972v-136h-972zM25 672v135h415v405h140v-405h417v-135h-417v-393h-140v393h-415z" />
<glyph unicode="&#xb2;" horiz-adv-x="675" d="M39 543l307 440q78 113 78 154q0 37 -26.5 60.5t-67.5 23.5q-53 0 -77 -31t-26 -105h-166v19q0 72 33 137q29 63 95.5 99t150.5 36q115 0 189.5 -62.5t74.5 -160.5q0 -104 -106 -250l-152 -209h236v-151h-543z" />
<glyph unicode="&#xb3;" horiz-adv-x="675" d="M41 776l162 6q16 -100 110 -100q51 0 89 35t38 82q0 49 -36.5 82.5t-90.5 33.5q-39 0 -77 -22l-103 80l191 239h-240v148h543l-238 -303q98 -8 160.5 -78t62.5 -170q0 -121 -84 -201t-209 -80q-154 0 -233 109q-35 49 -45 139z" />
<glyph unicode="&#xb4;" d="M391 1092l170 284h262l-272 -284h-160z" />
<glyph unicode="&#xb5;" d="M70 -346v1329h239v-522q0 -84 9.5 -124t35.5 -75q63 -82 154 -82q94 0 149.5 78t55.5 213v512h239v-983h-239v147q-66 -168 -209 -167q-66 0 -110 28.5t-85 97.5v-452h-239z" />
<glyph unicode="&#xb6;" d="M61 995q0 102 47.5 188.5t127.5 131.5q92 51 243 51h410v-1581h-135v1493h-164v-1493h-137v848h-31h-29q-137 0 -234.5 106.5t-97.5 255.5z" />
<glyph unicode="&#xb7;" horiz-adv-x="534" d="M117 503.5q0 65.5 42.5 109.5t108.5 44q63 0 107.5 -45t44.5 -110q0 -63 -43 -105.5t-108.5 -42.5t-108.5 42t-43 107.5z" />
<glyph unicode="&#xb8;" d="M326 -332q125 63 194 213l180 -76q-92 -145 -270 -229z" />
<glyph unicode="&#xb9;" horiz-adv-x="675" d="M156 1061v160l336 163v-841h-181v596z" />
<glyph unicode="&#xba;" horiz-adv-x="757" d="M51 831q0 137 92.5 222.5t237.5 85.5q141 0 233.5 -88t92.5 -224q0 -127 -95.5 -213t-234.5 -86q-143 0 -234.5 85t-91.5 218zM229 833.5q0 -69.5 41 -111.5t108.5 -42t107.5 41t40 110q0 74 -38.5 115t-108.5 41q-68 0 -109 -42t-41 -111.5z" />
<glyph unicode="&#xbb;" horiz-adv-x="866" d="M88 158l197 346l-197 334h170l195 -334l-195 -346h-170zM426 158l197 346l-197 334h170l195 -334l-195 -346h-170z" />
<glyph unicode="&#xbc;" horiz-adv-x="1611" d="M156 1061v160l336 163v-841h-181v596zM315 27l899 1359l82 -51l-901 -1362zM991 166v137l305 512h183v-502h77v-147h-77v-166h-174v166h-314zM1141 307h174v301z" />
<glyph unicode="&#xbd;" horiz-adv-x="1611" d="M156 1061v160l336 163v-841h-181v596zM315 27l899 1359l82 -51l-901 -1362zM973 0l307 440q78 111 78 154q0 37 -25.5 59.5t-68.5 22.5q-55 0 -78 -30t-25 -103h-166v16q0 70 33 139q29 61 94.5 97t151.5 36q117 0 190.5 -62t73.5 -159q0 -104 -106 -250l-152 -208h236 v-152h-543z" />
<glyph unicode="&#xbe;" horiz-adv-x="1611" d="M41 776l162 6q16 -100 110 -100q51 0 89 35t38 82q0 49 -36.5 82.5t-90.5 33.5q-39 0 -77 -22l-103 80l191 239h-240v148h543l-238 -303q98 -8 160.5 -78t62.5 -170q0 -121 -84 -201t-209 -80q-154 0 -233 109q-35 49 -45 139zM315 27l899 1359l82 -51l-901 -1362z M991 166v137l305 512h183v-502h77v-147h-77v-166h-174v166h-314zM1141 307h174v301z" />
<glyph unicode="&#xbf;" horiz-adv-x="915" d="M78 -72q0 100 42 174t140 146q74 57 98 93q20 31 20 77q0 8 -1 16q-2 35 -2 70h262q2 -33 2 -74q0 -121 -34 -180.5t-154 -153.5q-61 -49 -85 -85t-24 -81q0 -59 39 -97t98 -38q68 0 105 41t37 115h243q-4 -184 -106.5 -286.5t-282.5 -102.5q-176 0 -286.5 101 t-110.5 265zM352 827q0 63 44.5 106.5t107.5 43.5q66 0 108.5 -44t42.5 -108q0 -66 -44 -108.5t-109 -42.5q-63 0 -106.5 44t-43.5 109z" />
<glyph unicode="&#xc0;" horiz-adv-x="1294" d="M4 0l471 1366h350l467 -1366h-307l-78 236h-524l-82 -236h-297zM322 1759h270l192 -272h-178zM455 465h379l-189 565z" />
<glyph unicode="&#xc1;" horiz-adv-x="1294" d="M4 0l471 1366h350l467 -1366h-307l-78 236h-524l-82 -236h-297zM455 465h379l-189 565zM514 1487l193 272h268l-283 -272h-178z" />
<glyph unicode="&#xc2;" horiz-adv-x="1294" d="M4 0l471 1366h350l467 -1366h-307l-78 236h-524l-82 -236h-297zM305 1487l232 274h237l217 -274h-182l-158 139l-164 -139h-182zM455 465h379l-189 565z" />
<glyph unicode="&#xc3;" horiz-adv-x="1294" d="M4 0l471 1366h350l467 -1366h-307l-78 236h-524l-82 -236h-297zM305 1509q27 121 86 179q59 55 131 55q45 0 205 -64q27 -12 43 -12q53 0 78 78l170 -14q-63 -231 -219 -232q-39 0 -150 41q-86 31 -106 31q-53 0 -66 -72zM455 465h379l-189 565z" />
<glyph unicode="&#xc4;" horiz-adv-x="1294" d="M4 0l471 1366h350l467 -1366h-307l-78 236h-524l-82 -236h-297zM287 1638q0 55 44 99.5t101 44.5q55 0 107 -51q30 -36 30 -91q0 -65 -38.5 -103t-100.5 -38q-59 0 -101 41t-42 98zM455 465h379l-189 565zM723 1638.5q0 57.5 44 100.5t99 43q57 0 98.5 -43t41.5 -102.5 t-39 -98.5t-101 -39q-59 0 -101 41t-42 98.5z" />
<glyph unicode="&#xc5;" horiz-adv-x="1294" d="M4 0l471 1366h350l467 -1366h-307l-78 236h-524l-82 -236h-297zM455 465h379l-189 565zM459 1634q0 80 54 133.5t136 53.5t135.5 -53.5t53.5 -135.5q0 -76 -55.5 -130t-133.5 -54q-80 0 -135 54t-55 132zM555 1634q0 -39 27.5 -65.5t66.5 -26.5t65.5 26.5t26.5 65.5 q0 41 -26.5 66.5t-65.5 25.5q-41 0 -67.5 -25.5t-26.5 -66.5z" />
<glyph unicode="&#xc6;" horiz-adv-x="1740" d="M-12 0l741 1366h920v-229h-467v-336h467v-230h-467v-342h467v-229h-748v274h-469l-145 -274h-299zM549 496h352v657z" />
<glyph unicode="&#xc7;" horiz-adv-x="1300" d="M76 680q0 311 190.5 512t487.5 201q158 0 276.5 -49.5t239.5 -167.5l-183 -185q-156 141 -321 142q-180 0 -293 -124t-113 -323t118 -326t304 -127q184 1 305 140l170 -193q-119 -111 -237.5 -159t-269.5 -48q-319 0 -506 224q-168 201 -168 483zM449 -338 q172 82 200 217l248 -72q-97 -161 -324 -239z" />
<glyph unicode="&#xc8;" horiz-adv-x="948" d="M96 0v1366h760v-229h-479v-336h479v-230h-479v-342h479v-229h-760zM147 1759h271l192 -272h-178z" />
<glyph unicode="&#xc9;" horiz-adv-x="948" d="M96 0v1366h760v-229h-479v-336h479v-230h-479v-342h479v-229h-760zM340 1487l192 272h269l-283 -272h-178z" />
<glyph unicode="&#xca;" horiz-adv-x="948" d="M96 0v1366h760v-229h-479v-336h479v-230h-479v-342h479v-229h-760zM133 1487l232 274h235l217 -274h-182l-158 139l-162 -139h-182z" />
<glyph unicode="&#xcb;" horiz-adv-x="948" d="M96 0v1366h760v-229h-479v-336h479v-230h-479v-342h479v-229h-760zM115 1638q0 57 43 100.5t100 43.5t98 -43t41 -102.5t-40 -98.5t-101 -39q-59 0 -100 40t-41 99zM549 1638q0 55 44 99.5t101 44.5q55 0 107 -51q30 -36 30 -91q0 -63 -38.5 -102t-100.5 -39 q-59 0 -101 41t-42 98z" />
<glyph unicode="&#xcc;" horiz-adv-x="565" d="M-43 1759h268l193 -272h-178zM143 0v1366h281v-1366h-281z" />
<glyph unicode="&#xcd;" horiz-adv-x="565" d="M143 0v1366h281v-1366h-281zM147 1487l195 272h268l-284 -272h-179z" />
<glyph unicode="&#xce;" horiz-adv-x="565" d="M-59 1487l231 274h236l217 -274h-181l-159 139l-162 -139h-182zM143 0v1366h281v-1366h-281z" />
<glyph unicode="&#xcf;" horiz-adv-x="565" d="M-41 1638.5q0 57.5 44 100.5t99 43q57 0 98.5 -43t41.5 -102.5t-39 -98.5t-101 -39q-59 0 -101 41t-42 98.5zM143 0v1366h281v-1366h-281zM319 1638q0 55 44.5 99.5t101.5 44.5q59 0 106 -51q31 -37 31 -95q0 -61 -39 -99t-100 -38q-59 0 -101.5 41t-42.5 98z" />
<glyph unicode="&#xd0;" horiz-adv-x="1312" d="M10 582v219h133v565h387q319 0 492 -152q215 -190 215 -516q0 -342 -217 -540q-174 -158 -473 -158h-404v582h-133zM424 231h53q211 0 322 95q153 128 153 361q0 208 -115.5 330t-310.5 122h-102v-338h242v-219h-242v-351z" />
<glyph unicode="&#xd1;" horiz-adv-x="1413" d="M143 0v1366h277l571 -852v852h281v-1366h-275l-573 864v-864h-281zM365 1509q27 121 86 179q59 55 131 55q45 0 204 -64q29 -12 43 -12q51 0 76 78l172 -14q-63 -231 -219 -232q-43 0 -149 41q-86 31 -109 31q-51 0 -63 -72z" />
<glyph unicode="&#xd2;" horiz-adv-x="1564" d="M76 676q0 305 206 511t511 206q328 0 536 -250q158 -188 158 -467q0 -293 -204 -498t-495 -205q-299 0 -505.5 204t-206.5 499zM362 680q0 -190 121 -319.5t299 -129.5q176 0 298 128t122 315q0 201 -117.5 330t-300 129t-302.5 -128t-120 -325zM455 1759h270l193 -272 h-179z" />
<glyph unicode="&#xd3;" horiz-adv-x="1564" d="M76 676q0 305 206 511t511 206q328 0 536 -250q158 -188 158 -467q0 -293 -204 -498t-495 -205q-299 0 -505.5 204t-206.5 499zM362 680q0 -190 121 -319.5t299 -129.5q176 0 298 128t122 315q0 201 -117.5 330t-300 129t-302.5 -128t-120 -325zM647 1487l193 272h268 l-283 -272h-178z" />
<glyph unicode="&#xd4;" horiz-adv-x="1564" d="M76 676q0 305 206 511t511 206q328 0 536 -250q158 -188 158 -467q0 -293 -204 -498t-495 -205q-299 0 -505.5 204t-206.5 499zM362 680q0 -190 121 -319.5t299 -129.5q176 0 298 128t122 315q0 201 -117.5 330t-300 129t-302.5 -128t-120 -325zM438 1487l232 274h237 l217 -274h-182l-158 139l-161 -139h-185z" />
<glyph unicode="&#xd5;" horiz-adv-x="1564" d="M76 676q0 305 206 511t511 206q328 0 536 -250q158 -188 158 -467q0 -293 -204 -498t-495 -205q-299 0 -505.5 204t-206.5 499zM362 680q0 -190 121 -319.5t299 -129.5q176 0 298 128t122 315q0 201 -117.5 330t-300 129t-302.5 -128t-120 -325zM438 1509q27 123 88 179 q55 55 129 55q45 0 205 -64q29 -12 43 -12q53 0 78 78l170 -14q-63 -231 -217 -232q-41 0 -150 41q-86 31 -108 31q-53 0 -66 -72z" />
<glyph unicode="&#xd6;" horiz-adv-x="1564" d="M76 676q0 305 206 511t511 206q328 0 536 -250q158 -188 158 -467q0 -293 -204 -498t-495 -205q-299 0 -505.5 204t-206.5 499zM362 680q0 -190 121 -319.5t299 -129.5q176 0 298 128t122 315q0 201 -117.5 330t-300 129t-302.5 -128t-120 -325zM420 1638q0 55 44 99.5 t101 44.5q55 0 107 -51q30 -36 30 -91q0 -65 -38.5 -103t-100.5 -38q-59 0 -101 41t-42 98zM856 1638.5q0 57.5 44 100.5t99 43q57 0 98.5 -43t41.5 -102.5t-39 -98.5t-101 -39q-59 0 -101 41t-42 98.5z" />
<glyph unicode="&#xd7;" d="M104 418l314 311l-309 307l94 97l309 -310l309 312l101 -99l-314 -311l312 -307l-97 -96l-309 311l-311 -314z" />
<glyph unicode="&#xd8;" horiz-adv-x="1560" d="M74 670q0 311 199.5 517t500.5 206q283 0 477 -183l148 144l69 -76l-143 -139q88 -125 123 -227.5t35 -229.5q0 -299 -208 -504t-511 -205q-264 1 -459 181l-147 -140l-68 74l143 139q-86 111 -122.5 212.5t-36.5 230.5zM358 682q0 -153 76 -264l617 606 q-121 111 -269 111q-178 0 -301 -131.5t-123 -321.5zM500 338q117 -104 270 -105q88 0 175 39t147 105q106 119 106 307q0 145 -78 262z" />
<glyph unicode="&#xd9;" horiz-adv-x="1308" d="M121 575v791h280v-801q0 -178 62 -250q31 -37 84 -60.5t106 -23.5q131 0 199 95q53 72 53 241v799h283v-791q0 -295 -135 -442q-143 -160 -396 -160q-260 0 -413 170q-66 74 -94.5 174.5t-28.5 257.5zM328 1759h268l192 -272h-178z" />
<glyph unicode="&#xda;" horiz-adv-x="1308" d="M121 575v791h280v-801q0 -178 62 -250q31 -37 84 -60.5t106 -23.5q131 0 199 95q53 72 53 241v799h283v-791q0 -295 -135 -442q-143 -160 -396 -160q-260 0 -413 170q-66 74 -94.5 174.5t-28.5 257.5zM518 1487l193 272h270l-285 -272h-178z" />
<glyph unicode="&#xdb;" horiz-adv-x="1308" d="M121 575v791h280v-801q0 -178 62 -250q31 -37 84 -60.5t106 -23.5q131 0 199 95q53 72 53 241v799h283v-791q0 -295 -135 -442q-143 -160 -396 -160q-260 0 -413 170q-66 74 -94.5 174.5t-28.5 257.5zM311 1487l232 274h237l217 -274h-182l-158 139l-163 -139h-183z" />
<glyph unicode="&#xdc;" horiz-adv-x="1308" d="M121 575v791h280v-801q0 -178 62 -250q31 -37 84 -60.5t106 -23.5q131 0 199 95q53 72 53 241v799h283v-791q0 -295 -135 -442q-143 -160 -396 -160q-260 0 -413 170q-66 74 -94.5 174.5t-28.5 257.5zM293 1638q0 55 44 99.5t101 44.5q55 0 107 -51q30 -36 30 -91 q0 -63 -38.5 -102t-100.5 -39q-59 0 -101 41t-42 98zM729 1638.5q0 57.5 43 100.5t100.5 43t98.5 -43t41 -102.5t-40 -98.5t-99.5 -39t-101.5 41t-42 98.5z" />
<glyph unicode="&#xdd;" horiz-adv-x="1140" d="M-23 1366h334l264 -473l261 473h327l-448 -764v-602h-281v602zM436 1487l193 272h268l-283 -272h-178z" />
<glyph unicode="&#xde;" horiz-adv-x="1136" d="M139 0v1366h281v-149h155q242 0 374 -114t132 -323q0 -213 -131 -335.5t-356 -122.5h-174v-322h-281zM420 553h121q123 0 189.5 56.5t66.5 158.5t-66.5 159.5t-183.5 57.5h-127v-432z" />
<glyph unicode="&#xdf;" horiz-adv-x="1089" d="M53 729v219h92v105q0 150 107.5 240.5t282.5 90.5q180 0 290.5 -89t110.5 -234q0 -96 -51 -170q-37 -53 -121 -92q123 -37 190.5 -135.5t67.5 -241.5q0 -199 -101.5 -319.5t-271.5 -120.5q-86 0 -172 36l45 215q49 -12 68 -12q25 -2 59.5 10.5t50.5 28.5q68 61 68 170 q0 123 -88 180q-43 29 -139 37v238q63 6 90 26q51 41 51 109q0 57 -40 97t-97 40q-78 0 -117 -59q-22 -32 -22 -114v-7v-977h-261v729h-92z" />
<glyph unicode="&#xe0;" horiz-adv-x="1243" d="M70 463q0 225 135 371.5t342 146.5q182 0 309 -154v121h260v-948h-260v131q-131 -164 -329.5 -164t-327.5 139.5t-129 356.5zM311 1376h262l170 -284h-159zM348 467q0 -125 72 -208t178 -83q109 0 185.5 88t76.5 211q0 125 -72.5 206t-187.5 81q-113 0 -182.5 -82 t-69.5 -213z" />
<glyph unicode="&#xe1;" horiz-adv-x="1243" d="M70 463q0 225 135 371.5t342 146.5q182 0 309 -154v121h260v-948h-260v131q-131 -164 -329.5 -164t-327.5 139.5t-129 356.5zM348 467q0 -125 72 -208t178 -83q109 0 185.5 88t76.5 211q0 125 -72.5 206t-187.5 81q-113 0 -182.5 -82t-69.5 -213zM502 1092l170 284h262 l-270 -284h-162z" />
<glyph unicode="&#xe2;" horiz-adv-x="1243" d="M70 463q0 225 135 371.5t342 146.5q182 0 309 -154v121h260v-948h-260v131q-131 -164 -329.5 -164t-327.5 139.5t-129 356.5zM299 1092l209 284h242l196 -284h-182l-139 151l-144 -151h-182zM348 467q0 -125 72 -208t178 -83q109 0 185.5 88t76.5 211q0 125 -72.5 206 t-187.5 81q-113 0 -182.5 -82t-69.5 -213z" />
<glyph unicode="&#xe3;" horiz-adv-x="1243" d="M70 463q0 225 135 371.5t342 146.5q182 0 309 -154v121h260v-948h-260v131q-131 -164 -329.5 -164t-327.5 139.5t-129 356.5zM301 1122q51 227 213 228q61 0 186 -60q27 -14 48 -14q45 0 57 72l168 -13q-55 -229 -213 -229q-55 0 -182 59q-33 16 -48 17q-43 0 -61 -74z M348 467q0 -125 72 -208t178 -83q109 0 185.5 88t76.5 211q0 125 -72.5 206t-187.5 81q-113 0 -182.5 -82t-69.5 -213z" />
<glyph unicode="&#xe4;" horiz-adv-x="1243" d="M70 463q0 225 135 371.5t342 146.5q182 0 309 -154v121h260v-948h-260v131q-131 -164 -329.5 -164t-327.5 139.5t-129 356.5zM299 1241q0 57 41 97t98 40q59 0 97 -40t38 -101q0 -57 -37.5 -95t-97 -38t-99.5 40t-40 97zM348 467q0 -125 72 -208t178 -83q109 0 185.5 88 t76.5 211q0 125 -72.5 206t-187.5 81q-113 0 -182.5 -82t-69.5 -213zM735 1241q0 57 41 97t98 40q59 0 97.5 -39t38.5 -102q0 -59 -38 -96t-97.5 -37t-99.5 40t-40 97z" />
<glyph unicode="&#xe5;" horiz-adv-x="1243" d="M70 463q0 225 135 371.5t342 146.5q182 0 309 -154v121h260v-948h-260v131q-131 -164 -329.5 -164t-327.5 139.5t-129 356.5zM348 467q0 -125 72 -208t178 -83q109 0 185.5 88t76.5 211q0 125 -72.5 206t-187.5 81q-113 0 -182.5 -82t-69.5 -213zM420 1241q0 78 54 132 t136 54q80 0 134.5 -54t54.5 -136q0 -76 -55.5 -129t-133.5 -53q-82 0 -136 54t-54 132zM516 1241q0 -41 26.5 -66.5t67.5 -25.5q39 0 65.5 25.5t26.5 64.5q0 41 -25.5 67.5t-66.5 26.5t-67.5 -25.5t-26.5 -66.5z" />
<glyph unicode="&#xe6;" horiz-adv-x="1935" d="M68 465q0 225 132 370.5t337 145.5q209 0 340 -141v108h249v-108q59 78 125 109.5t160 31.5q199 0 333 -146.5t134 -363.5q0 -35 -2 -61h-750q20 -98 90 -154.5t170 -56.5q132 0 222 125l235 -72q-150 -285 -430 -285q-96 0 -162.5 33t-124.5 111v-111h-249v117 q-121 -150 -330 -150q-217 0 -348 136.5t-131 361.5zM344 471q0 -123 78 -208t190 -85q111 0 185.5 81t74.5 202q0 131 -73.5 216t-188 85t-190.5 -83t-76 -208zM1126 559h484q-41 203 -236 203q-115 0 -188 -80q-35 -41 -60 -123z" />
<glyph unicode="&#xe7;" horiz-adv-x="958" d="M68 469q0 225 141 368.5t362 143.5q203 0 379 -158l-174 -157q-88 84 -196 84q-106 0 -178 -78t-72 -195q0 -121 73.5 -199.5t186.5 -78.5q92 0 186 80l158 -170q-156 -141 -365 -142q-217 0 -359 142.5t-142 359.5zM322 -332q125 63 194 213l180 -76q-92 -145 -270 -229 z" />
<glyph unicode="&#xe8;" horiz-adv-x="1138" d="M68 475q0 223 140 364.5t359 141.5q225 0 369.5 -145.5t144.5 -372.5q0 -33 -2 -51h-741q16 -98 83.5 -155.5t164.5 -57.5q72 0 130 32.5t89 90.5l239 -66q-72 -139 -191.5 -214t-268.5 -75q-225 0 -370.5 143.5t-145.5 364.5zM258 1376h262l170 -284h-160zM338 561h475 q-16 94 -80.5 147.5t-161.5 53.5q-92 0 -153.5 -53.5t-79.5 -147.5z" />
<glyph unicode="&#xe9;" horiz-adv-x="1138" d="M68 475q0 223 140 364.5t359 141.5q225 0 369.5 -145.5t144.5 -372.5q0 -33 -2 -51h-741q16 -98 83.5 -155.5t164.5 -57.5q72 0 130 32.5t89 90.5l239 -66q-72 -139 -191.5 -214t-268.5 -75q-225 0 -370.5 143.5t-145.5 364.5zM338 561h475q-16 94 -80.5 147.5 t-161.5 53.5q-92 0 -153.5 -53.5t-79.5 -147.5zM451 1092l170 284h260l-271 -284h-159z" />
<glyph unicode="&#xea;" horiz-adv-x="1138" d="M68 475q0 223 140 364.5t359 141.5q225 0 369.5 -145.5t144.5 -372.5q0 -33 -2 -51h-741q16 -98 83.5 -155.5t164.5 -57.5q72 0 130 32.5t89 90.5l239 -66q-72 -139 -191.5 -214t-268.5 -75q-225 0 -370.5 143.5t-145.5 364.5zM246 1092l209 284h241l197 -284h-182 l-140 151l-143 -151h-182zM338 561h475q-16 94 -80.5 147.5t-161.5 53.5q-92 0 -153.5 -53.5t-79.5 -147.5z" />
<glyph unicode="&#xeb;" horiz-adv-x="1138" d="M68 475q0 223 140 364.5t359 141.5q225 0 369.5 -145.5t144.5 -372.5q0 -33 -2 -51h-741q16 -98 83.5 -155.5t164.5 -57.5q72 0 130 32.5t89 90.5l239 -66q-72 -139 -191.5 -214t-268.5 -75q-225 0 -370.5 143.5t-145.5 364.5zM213 1241q0 57 41 97t98 40q59 0 97 -40 t38 -101q0 -57 -37.5 -95t-97 -38t-99.5 40t-40 97zM338 561h475q-16 94 -80.5 147.5t-161.5 53.5q-92 0 -153.5 -53.5t-79.5 -147.5zM649 1241q0 57 41 97t98 40q59 0 97.5 -40t38.5 -101q0 -59 -38 -96t-97.5 -37t-99.5 40t-40 97z" />
<glyph unicode="&#xec;" horiz-adv-x="518" d="M-51 1376h262l170 -284h-160zM129 0v948h260v-948h-260z" />
<glyph unicode="&#xed;" horiz-adv-x="518" d="M129 0v948h260v-948h-260zM139 1092l170 284h262l-272 -284h-160z" />
<glyph unicode="&#xee;" horiz-adv-x="518" d="M-63 1092l208 284h242l197 -284h-183l-139 151l-143 -151h-182zM129 0v948h260v-948h-260z" />
<glyph unicode="&#xef;" horiz-adv-x="518" d="M-59 1241q0 57 41 97t98 40q59 0 97 -40t38 -101q0 -57 -38 -95t-97.5 -38t-99 40t-39.5 97zM129 0v948h260v-948h-260zM299 1241q0 55 42 96t99 41q59 0 96 -39t37 -102q0 -59 -37.5 -96t-97 -37t-99.5 40t-40 97z" />
<glyph unicode="&#xf0;" horiz-adv-x="1165" d="M68 475q0 221 143 362.5t367 141.5q94 0 190 -35q-45 127 -158 242l-198 -109l-56 105l156 84q-27 25 -99.5 63.5t-111.5 48.5l51 82q57 -10 144.5 -48t146.5 -77l213 115l59 -102l-157 -82q162 -129 252 -327t90 -423q0 -291 -180 -434q-139 -115 -338 -115 q-225 0 -369.5 142.5t-144.5 365.5zM332 475q0 -125 68.5 -200.5t181.5 -75.5q125 0 202 94q49 66 50 184q0 125 -66.5 196.5t-183.5 71.5q-115 0 -183.5 -72.5t-68.5 -197.5z" />
<glyph unicode="&#xf1;" horiz-adv-x="1087" d="M129 0v948h260v-117q51 82 109.5 116t148.5 34q141 0 234 -88q47 -47 65.5 -111.5t18.5 -181.5v-600h-260v588q0 74 -23 110q-43 63 -125 64q-74 0 -121 -52.5t-47 -134.5v-575h-260zM221 1122q55 227 215 228q59 0 185 -60q29 -14 47 -14q43 0 59 72l166 -13 q-53 -229 -211 -229q-57 0 -184 59q-33 16 -47 17q-41 0 -62 -74z" />
<glyph unicode="&#xf2;" horiz-adv-x="1163" d="M68 473q0 225 144.5 366.5t373.5 141.5q223 0 368.5 -146.5t145.5 -369.5q0 -209 -150.5 -353.5t-369.5 -144.5q-223 0 -367.5 142.5t-144.5 363.5zM272 1376h263l170 -284h-162zM330 475q0 -123 70.5 -199.5t183.5 -76.5q109 0 181.5 77.5t72.5 192.5q0 125 -68.5 202 t-183.5 77q-117 0 -186.5 -75t-69.5 -198z" />
<glyph unicode="&#xf3;" horiz-adv-x="1163" d="M68 473q0 225 144.5 366.5t373.5 141.5q223 0 368.5 -146.5t145.5 -369.5q0 -209 -150.5 -353.5t-369.5 -144.5q-223 0 -367.5 142.5t-144.5 363.5zM330 475q0 -123 70.5 -199.5t183.5 -76.5q109 0 181.5 77.5t72.5 192.5q0 125 -68.5 202t-183.5 77q-117 0 -186.5 -75 t-69.5 -198zM463 1092l170 284h262l-272 -284h-160z" />
<glyph unicode="&#xf4;" horiz-adv-x="1163" d="M68 473q0 225 144.5 366.5t373.5 141.5q223 0 368.5 -146.5t145.5 -369.5q0 -209 -150.5 -353.5t-369.5 -144.5q-223 0 -367.5 142.5t-144.5 363.5zM260 1092l209 284h240l198 -284h-182l-141 151l-142 -151h-182zM330 475q0 -123 70.5 -199.5t183.5 -76.5 q109 0 181.5 77.5t72.5 192.5q0 125 -68.5 202t-183.5 77q-117 0 -186.5 -75t-69.5 -198z" />
<glyph unicode="&#xf5;" horiz-adv-x="1163" d="M68 473q0 225 144.5 366.5t373.5 141.5q223 0 368.5 -146.5t145.5 -369.5q0 -209 -150.5 -353.5t-369.5 -144.5q-223 0 -367.5 142.5t-144.5 363.5zM260 1122q55 227 215 228q63 0 184 -60q29 -14 48 -14q43 0 59 72l166 -13q-53 -229 -211 -229q-57 0 -184 59 q-33 16 -48 17q-41 0 -61 -74zM330 475q0 -123 70.5 -199.5t183.5 -76.5q109 0 181.5 77.5t72.5 192.5q0 125 -68.5 202t-183.5 77q-117 0 -186.5 -75t-69.5 -198z" />
<glyph unicode="&#xf6;" horiz-adv-x="1163" d="M68 473q0 225 144.5 366.5t373.5 141.5q223 0 368.5 -146.5t145.5 -369.5q0 -209 -150.5 -353.5t-369.5 -144.5q-223 0 -367.5 142.5t-144.5 363.5zM225 1241q0 55 42.5 96t99.5 41q59 0 96 -39t37 -102q0 -59 -38 -96t-97.5 -37t-99.5 40t-40 97zM330 475 q0 -123 70.5 -199.5t183.5 -76.5q109 0 181.5 77.5t72.5 192.5q0 125 -68.5 202t-183.5 77q-117 0 -186.5 -75t-69.5 -198zM664 1241q0 57 41 97t98 40q59 0 97 -40t38 -101q0 -57 -39 -95t-98.5 -38t-98 40t-38.5 97z" />
<glyph unicode="&#xf7;" d="M25 659v136h972v-136h-972zM403 367q0 47 32 77.5t77 30.5q43 0 74.5 -31.5t31.5 -74.5q0 -45 -30.5 -77t-77.5 -32q-45 0 -76 31t-31 76zM403 1085q0 45 32 77t77 32t75.5 -32t30.5 -77t-30.5 -75.5t-75.5 -30.5t-77 30.5t-32 75.5z" />
<glyph unicode="&#xf8;" horiz-adv-x="1165" d="M211 837.5q143 143.5 364 143.5q195 0 345 -113l112 109l62 -68l-109 -106q115 -156 115 -334q0 -213 -148.5 -357.5t-367.5 -144.5q-193 0 -340 115l-109 -105l-65 68l106 105q-108 134 -108 320q0 224 143 367.5zM322 465q0 -75 36 -141l383 374q-72 49 -157 50 q-119 0 -190.5 -76t-71.5 -207zM422 252q78 -53 164 -53q113 0 185.5 76.5t72.5 197.5q0 86 -41 158z" />
<glyph unicode="&#xf9;" horiz-adv-x="1052" d="M111 348v600h260v-583q0 -78 44 -128.5t113 -50.5q72 0 113 43t41 119v600h260v-600q0 -104 -24.5 -168.5t-81.5 -113.5q-115 -98 -308 -99q-203 0 -317 105q-100 92 -100 276zM215 1376h262l170 -284h-162z" />
<glyph unicode="&#xfa;" horiz-adv-x="1052" d="M111 348v600h260v-583q0 -78 44 -128.5t113 -50.5q72 0 113 43t41 119v600h260v-600q0 -104 -24.5 -168.5t-81.5 -113.5q-115 -98 -308 -99q-203 0 -317 105q-100 92 -100 276zM406 1092l169 284h263l-271 -284h-161z" />
<glyph unicode="&#xfb;" horiz-adv-x="1052" d="M111 348v600h260v-583q0 -78 44 -128.5t113 -50.5q72 0 113 43t41 119v600h260v-600q0 -104 -24.5 -168.5t-81.5 -113.5q-115 -98 -308 -99q-203 0 -317 105q-100 92 -100 276zM203 1092l209 284h241l197 -284h-182l-140 151l-143 -151h-182z" />
<glyph unicode="&#xfc;" horiz-adv-x="1052" d="M111 348v600h260v-583q0 -78 44 -128.5t113 -50.5q72 0 113 43t41 119v600h260v-600q0 -104 -24.5 -168.5t-81.5 -113.5q-115 -98 -308 -99q-203 0 -317 105q-100 92 -100 276zM170 1241q0 57 41 97t98 40q59 0 97 -40t38 -101q0 -57 -38.5 -95t-98.5 -38q-57 0 -97 40 t-40 97zM606 1241q0 57 41 97t98 40q59 0 97.5 -40t38.5 -101q0 -57 -39 -95t-97 -38q-59 0 -99 39t-40 98z" />
<glyph unicode="&#xfd;" horiz-adv-x="960" d="M-4 948h276l193 -563l221 563h277l-535 -1380h-278l178 455zM358 1092l170 284h263l-271 -284h-162z" />
<glyph unicode="&#xfe;" horiz-adv-x="1245" d="M127 -424v1790h260v-535q111 150 311 150q143 0 265 -78q215 -145 215 -432q0 -227 -130 -365.5t-343 -138.5q-201 0 -318 135v-526h-260zM387 463q0 -129 69.5 -208t182.5 -79q115 0 187.5 81t72.5 208q0 133 -69.5 215t-182.5 82q-115 0 -187.5 -84t-72.5 -215z" />
<glyph unicode="&#xff;" horiz-adv-x="960" d="M-4 948h276l193 -563l221 563h277l-535 -1380h-278l178 455zM123 1241q0 57 41 97t98 40q59 0 97 -40t38 -101q0 -57 -39 -95t-98 -38t-98 40t-39 97zM559 1241q0 57 41 97t98 40q59 0 97.5 -40t38.5 -101q0 -57 -39 -95t-97 -38q-59 0 -99 39t-40 98z" />
<glyph unicode="&#x152;" horiz-adv-x="2052" d="M80 686q0 303 198.5 505t495.5 202q262 0 443 -181v154h741v-229h-467v-336h467v-230h-467v-342h467v-229h-741v162q-68 -82 -154 -123q-141 -66 -295 -66q-293 0 -490.5 205t-197.5 508zM365 680q0 -193 120.5 -320t305 -127t309.5 129.5t125 321.5q0 197 -118 323 t-304 126q-190 0 -314 -128t-124 -325z" />
<glyph unicode="&#x153;" horiz-adv-x="1857" d="M68 475q0 223 142 364.5t365 141.5q250 0 377 -170q59 72 135 111q119 59 244 59q154 0 273.5 -76t175.5 -207q47 -111 49 -290h-735q8 -82 55 -132q77 -77 187 -77h3h3q156 0 241 120l213 -71q-147 -281 -455 -281q-145 0 -272 72q-61 35 -117 106q-33 -43 -57.5 -64.5 t-77.5 -49.5q-119 -63 -244 -64q-221 0 -363 142.5t-142 365.5zM330 481q0 -119 73.5 -200.5t182.5 -81.5q104 0 177 76.5t73 187.5q0 125 -72 206t-180.5 81t-181 -77t-72.5 -192zM1083 557h492q-18 98 -81.5 151.5t-164.5 53.5q-199 0 -246 -205z" />
<glyph unicode="&#x178;" horiz-adv-x="1140" d="M-23 1366h334l264 -473l261 473h327l-448 -764v-602h-281v602zM209 1638q0 55 44 99.5t101 44.5q59 0 107 -51q31 -37 31 -95q0 -61 -39 -99t-101 -38q-59 0 -101 41t-42 98zM645 1638q0 55 44 99.5t99 44.5q57 0 109 -51q31 -37 31 -95q0 -59 -39 -98t-101 -39 q-59 0 -101 41t-42 98z" />
<glyph unicode="&#x2c6;" d="M188 1092l209 284h242l197 -284h-183l-139 151l-143 -151h-183z" />
<glyph unicode="&#x2dc;" d="M190 1122q51 227 213 228q61 0 187 -60q29 -14 47 -14q45 0 57 72l168 -13q-55 -229 -213 -229q-55 0 -182 59q-33 16 -47 17q-41 0 -62 -74z" />
<glyph unicode="&#x2000;" horiz-adv-x="910" />
<glyph unicode="&#x2001;" horiz-adv-x="1821" />
<glyph unicode="&#x2002;" horiz-adv-x="910" />
<glyph unicode="&#x2003;" horiz-adv-x="1821" />
<glyph unicode="&#x2004;" horiz-adv-x="607" />
<glyph unicode="&#x2005;" horiz-adv-x="455" />
<glyph unicode="&#x2006;" horiz-adv-x="303" />
<glyph unicode="&#x2007;" horiz-adv-x="303" />
<glyph unicode="&#x2008;" horiz-adv-x="227" />
<glyph unicode="&#x2009;" horiz-adv-x="364" />
<glyph unicode="&#x200a;" horiz-adv-x="101" />
<glyph unicode="&#x2010;" horiz-adv-x="454" d="M0 385v229h455v-229h-455z" />
<glyph unicode="&#x2011;" horiz-adv-x="454" d="M0 385v229h455v-229h-455z" />
<glyph unicode="&#x2012;" horiz-adv-x="454" d="M0 385v229h455v-229h-455z" />
<glyph unicode="&#x2013;" d="M96 379v219h834v-219h-834z" />
<glyph unicode="&#x2014;" horiz-adv-x="1370" d="M0 399v199h1370v-199h-1370z" />
<glyph unicode="&#x2018;" horiz-adv-x="483" d="M70 967l161 426l177 -45l-115 -441z" />
<glyph unicode="&#x2019;" horiz-adv-x="483" d="M78 954l115 439l223 -60l-162 -426z" />
<glyph unicode="&#x201a;" horiz-adv-x="497" d="M78 -193l119 472l233 -64l-170 -455z" />
<glyph unicode="&#x201c;" horiz-adv-x="888" d="M70 922l174 471l182 -47l-123 -488zM459 922l174 471l180 -47l-121 -488z" />
<glyph unicode="&#x201d;" horiz-adv-x="888" d="M76 905l123 488l233 -64l-174 -471zM463 905l123 488l233 -64l-174 -471z" />
<glyph unicode="&#x201e;" horiz-adv-x="888" d="M76 -209l123 488l233 -64l-174 -471zM463 -209l123 488l233 -64l-174 -471z" />
<glyph unicode="&#x2022;" horiz-adv-x="1366" d="M401 696q0 121 84 205q78 78 203 78q121 0 193 -78q88 -94 88 -205q0 -49 -23.5 -105t-62.5 -95q-84 -84 -199 -84q-117 0 -200 83t-83 201z" />
<glyph unicode="&#x2026;" horiz-adv-x="1601" d="M117 124.5q0 65.5 43 108.5t108.5 43t108.5 -44t43 -109q0 -63 -44 -106.5t-108 -43.5q-66 0 -108.5 43t-42.5 108.5zM651 124.5q0 65.5 43 108.5t109 43q63 0 107 -44t44 -109q0 -61 -45 -105.5t-108 -44.5q-66 0 -108 43t-42 108.5zM1184 125q0 66 43.5 108.5 t109.5 42.5q63 0 106.5 -44t43.5 -109q0 -63 -44 -106.5t-108 -43.5q-66 0 -108.5 44t-42.5 108z" />
<glyph unicode="&#x202f;" horiz-adv-x="364" />
<glyph unicode="&#x2039;" horiz-adv-x="528" d="M76 487l194 347h170l-196 -347l196 -333h-170z" />
<glyph unicode="&#x203a;" horiz-adv-x="528" d="M88 154l197 346l-197 334h170l195 -334l-195 -346h-170z" />
<glyph unicode="&#x205f;" horiz-adv-x="455" />
<glyph unicode="&#x20ac;" d="M0 549l86 262h64q37 262 181 422t345 160q195 0 344 -146l-115 -266q-88 152 -221 152q-92 0 -157.5 -85t-90.5 -237h377l-86 -262h-287q29 -145 101.5 -231.5t167.5 -86.5q147 0 245 158v-340q-125 -76 -258 -76q-205 0 -357.5 161t-186.5 415h-152z" />
<glyph unicode="&#x2122;" horiz-adv-x="1744" d="M16 1217v149h594v-149h-202v-670h-191v670h-201zM727 547v819h211l246 -479l248 479h210v-819h-190v475l-268 -510l-266 510v-475h-191z" />
<glyph unicode="&#xe000;" horiz-adv-x="950" d="M0 950h950v-950h-950v950z" />
<glyph unicode="&#xfb01;" horiz-adv-x="1091" d="M43 729v219h104v53q0 193 93 280q90 85 283 85h9v-240q-70 -8 -97 -36.5t-27 -88.5v-53h124v-219h-124v-729h-261v729h-104zM688 1220.5q0 63.5 41 103.5t104.5 40t103.5 -41t40 -106q0 -59 -42 -100.5t-103.5 -41.5t-102.5 41t-41 104.5zM702 0v948h261v-948h-261z" />
<glyph unicode="&#xfb02;" horiz-adv-x="1091" d="M43 729v219h104v53q0 193 93 280q90 85 283 85h9v-240q-70 -8 -97 -36.5t-27 -88.5v-53h124v-219h-124v-729h-261v729h-104zM702 0v1366h261v-1366h-261z" />
<glyph unicode="&#xfb03;" horiz-adv-x="1689" d="M43 729v219h104v53q0 193 93 280q90 85 283 85h9v-240q-70 -8 -97 -36.5t-27 -88.5v-53h124v-219h-124v-729h-261v729h-104zM621 729v219h106v53q0 193 91 280q89 85 283 85h9v-240q-68 -10 -95.5 -37.5t-27.5 -87.5v-53h123v-219h-123v-729h-260v729h-106zM1286 1221 q0 61 41 102t104.5 41t103.5 -41t40 -106q0 -59 -41 -100.5t-102 -41.5q-63 0 -104.5 41t-41.5 105zM1300 0v948h261v-948h-261z" />
<glyph unicode="&#xfb04;" horiz-adv-x="1689" d="M43 729v219h104v53q0 193 93 280q90 85 283 85h9v-240q-70 -8 -97 -36.5t-27 -88.5v-53h124v-219h-124v-729h-261v729h-104zM621 729v219h106v53q0 193 91 280q89 85 283 85h9v-240q-68 -10 -95.5 -37.5t-27.5 -87.5v-53h123v-219h-123v-729h-260v729h-106zM1300 0v1366 h261v-1366h-261z" />
</font>
</defs>
</svg>
